<svg xmlns="http://www.w3.org/2000/svg" viewBox="0 0 400 400"><g fill-rule="evenodd" clip-rule="evenodd"><path fill="#8c8a8a" d="M231.029 332.464L234 273.898l-10.453-14.924-20.35 15.177 4.045 58.203 5.912 15.41z"/><path opacity=".149" fill="#2b2b2b" d="M99.611 387.298l80.271-13.245 41.13 10.039 49.91 8.65-68.929 7.638-71.838-2.25z"/><path fill="#738c57" d="M230.822 213.535l19.962 25.171 11.003-23.515-5.042-28.137-22.44-28.404-16.903 26.14z"/><path fill="#5e5e5e" d="M229.17 368.084l8.455 19.511-2.994 1.587-30.555.257-2.571-1.36 6.042-19.349 16.842-16.019z"/><path fill="#787878" d="M231.029 332.464l-1.859 35.62-10.856.325-10.767.326-.305-36.381z"/><path fill="#4d4d4d" d="M199.193 395.143l38.734.285-.302-7.833-38.73-.289z"/><path fill="#617840" d="M154.085 197.786l-4.916-37.425-43.296 55.327 33.146 25.044z"/><path d="M195.049 174.542c.012.024-.004.055-.045.087.008-.093.023-.126.047-.087.007.008.005.008-.002 0m-37.074 69.913l8.526 9.619 36.281-5.078s-3.564-32.34-5.865-54.394l-.008-.098-.046-.443-.057-.537-.053-.535-.006-.04-.051-.486c-1.088-10.49-1.827-18.154-1.648-17.92-.202-.248-4.877-6.415-11.863-5.239-3.904.657-9.381 8.972-13.299 9.863l1.697 1.473c-7.548 1.737-14.001 3.161-14.001 3.161l.309 47.434-.13 1.14.139.207.075 11.873z" fill="#c2c2c2"/><path d="M141.223 242.364l8.724 8.806 2.486.089 2.026 1.774-.1-1.705 11.049.391-.1-8.357 1.967-62.128h.002l.017-.519h-.002l-.008-.006-.029-.014h-.002l-.045-.024-.002-.002-.063-.033-.002-.002-.082-.043h-.002l-.098-.053v-.002l-.116-.059-.002-.002-.13-.067v-.002l-.146-.077-.161-.083-.002-.002-.171-.091h-.002l-.187-.1-.002-.002-.2-.104h-.002l-.211-.112h-.002l-.224-.118-.002-.002-.232-.122h-.002l-.246-.13-.256-.134h-.002l-.265-.138h-.002l-.273-.145-.283-.146-.002-.002-.289-.149-.002-.002-.295-.152-.002-.002-.303-.157-.309-.161h-.002l-.314-.163h-.002l-.317-.164-.002-.002-.324-.165-.002-.002-.326-.167v-.002l-.332-.167v-.003l-.333-.168-.002-.003-.334-.168-.335-.171-.002-.003-.338-.168v-.003l-.337-.168v-.002l-.334-.17h-.002l-.336-.169-.333-.167-.002-.002-.332-.165h-.002l-.328-.163h-.002l-.328-.161v-.002l-.322-.157-.002-.002-.317-.155-.313-.152h-.003l-.305-.149h-.002l-.301-.144v-.002l-.295-.138h-.002l-.287-.134v-.002l-.281-.13-.27-.124-.003-.002-.262-.12-.252-.114h-.002l-.242-.108-.232-.102-.222-.096h-.002l-.207-.085-.002-.002-.195-.077v-.002l-.185-.071-.171-.063-.157-.055v-.002l-.141-.044v-.002l-.126-.036-.112-.027v-.002l-.094-.018c-.028-.004-.059-.004-.089 0-.033.004-.066.014-.1.026v.002l-.104.051-.114.077c-.078.062-.161.139-.246.228v.002l-.132.146-.139.169-.144.191c-.198.269-.407.586-.631.95l-.342.578-.356.635v.002l-.183.338-.188.35-.378.732v.002l-.387.771-.195.398-.393.816h-.002l-.395.838v.002l-.197.425-.59 1.288c-.326.718-.643 1.439-.95 2.139v.002l-.183.419-.179.413h-.002l-.173.409h-.004l-.339.795v.002l-.773 1.829c-.801 1.917-1.322 3.223-1.322 3.223l-1.575 50.846z" fill="#ccc"/><path fill="#2e2e2e" d="M143.306 246.722L148.26 248l39.451.175 2.38 3.995-2.478 4.631-39.65-1.086z"/><path fill="#456126" d="M194.553 220.123l-6.84 28.052-.1 8.626 24.862 16.532 21.525.565.301-115.248zM149.169 160.361l-22.251 43.376 7.367 45.076 13.678 6.902.299-7.715z"/><path fill="#4f7033" d="M166.699 177.535l-3.77 5.995-8.425 48.849 10.805 10.986 14.471-11.531-7.826-48.212z"/><path fill="#6b9947" d="M150.858 184.763l3.074 3.632.891 59.748-17.531-50.298z"/><path fill="#99c266" d="M157.796 167.513l-2.259-10.213-6.368 3.061-11.877 37.484 16.64-9.45zM188.504 179.354l-.148 12.526 8.28 13.806 16.852-2.181 20.817-44.855-4.317-2.361z"/><path fill="#6b874d" d="M154.506 173.087l8.423 10.443 9.025.092 15.562-11.715-24.388-10.078z"/><path fill="#ebedeb" d="M171.498 166.477l-3.88 1.693-13.686 20.225 1.605-31.095 8.407-4.045z"/><path fill="#9e857d" d="M155.484 135.854l12.134 32.316 10.836.24 3.56.808 20.557-11.977 8.944-28.799z"/><path fill="#c7a39e" d="M182.271 144.899l14.984.008-9.52 26.475 29.374-23.366 6.063-38.562-6.611-80.232-28.028 9.34z"/><path fill="#9e857d" d="M217.252 90.755l-10.372 3.502 16.292 15.197 2.035-12.939z"/><path fill="#e3c7c2" d="M219.864 57.259l10.022 9.548-4.679 29.708-18.327-2.258 2.71-29.525z"/><path fill="#5e5e5e" d="M207.173 23.602l21.028 3.83 1.685 39.375-20.296-2.075 7.605-9.365-11.947.45-2.93-9.394z"/><path fill="#9e9ea1" d="M228.995 46.004l.485 11.32-19.89 7.408-4.342-8.915z"/><path fill="#666b6b" d="M208.227 6.649l19.974 20.783-25.883 18.991-17.716 4.086-11.018-10.741-6.289-18.804 14.248-9.259z"/><path fill="#7d7d80" d="M123.504 28.005l1.833-7.314 18.559-14.658 44.089-4.653 2.318 8.884-13.053 9.868z"/><path d="M123.948 23.478L121.868 20l22.028-13.967-17.084 18.316s-1.092-.328-2.864-.871" fill="#666b6b"/><path fill="#87878a" d="M187.985 1.382l20.242 5.267-30.977 13.483z"/><path fill="#e3c7c2" d="M115.812 52.926l1.334 53.151 27.668 40.006 37.457-1.184 18.282-42.608 1.765-55.868-17.716-1.812-7.352-24.479-50.438 4.217z"/><path fill="#87878a" d="M115.812 52.926l11-28.577L121.868 20z"/><path fill="#9e857d" d="M213.984 70.313l10.299 1.293-11.544 13.269z"/><path fill="#ebedeb" d="M217.105 148.016l-38.651 20.392 9.902 23.472 41.632-35.591z"/><path fill="#6b9947" d="M188.356 191.88l-.645 56.295 25.777-44.67z"/><path fill="#70c4a3" d="M203.73 182.159l13.847 5.676-4.093 8.385-13.851-5.677z"/><path fill="#308c69" d="M210.888 185.093l-7.158-2.934-2.339 4.791 7.157 2.934z"/><path fill="#ebedeb" d="M210.888 185.093l6.689 2.742-.586 1.199-6.689-2.743zM209.134 188.686l6.689 2.742.586-1.196-6.693-2.742zM200.805 188.149l13.846 5.676.586-1.199-13.846-5.676zM199.633 190.543l13.851 5.677.582-1.199-13.847-5.676z"/><path fill="#738c57" d="M126.918 203.737l-21.045 11.951 16.162 32.727 21.149-33.513z"/><path fill="#456126" d="M283.792 221.909l-33.008 16.797 5.961-51.652 9.628-3.78 9.167 2.099z"/><path fill="#dededb" d="M257.661 177.184l-.916 9.87 18.795-1.681-1.835-8.189-8.708-2.518z"/><path fill="#e3c7c2" d="M256.286 147.581l1.375 29.603 8.94-5.458 1.55-10.898-6.364-13.666z"/><path fill="#c7a39e" d="M283.332 163.538l-9.627 13.646h-16.044l10.49-16.356 16.325-3.38z"/><path fill="#e3c7c2" d="M299.148 147.79l-14.672 9.658-10.771 19.736 20.861-12.176z"/><path fill="#454547" d="M193.056 286.159l-44.796 83.573 3.276-36.035 15.844-55.546 7.866-8.476z"/><path fill="#308c69" d="M215.791 263.193l-6.628 132.023-7.17 5.164-3.638-19.141 5.27-116.536 4.171-5.542 4.765-.028z"/><path fill="#45b085" d="M195.768 255.775l9.822 52.649-3.597 91.956-71.838-2.25-19.816-90.78 11.171-2.433z"/><path fill="#217354" d="M212.991 314.67l10.478-5.774-11.836-11.763-107.263-.744-5.461 3.559 11.43 7.402 95.251 1.074z"/><path fill="#308c69" d="M223.566 244.297l-17.634-17.419-4.647 11.348 10.16 63.167 12.024 7.503z"/><path fill="#74c7a5" d="M114.821 224.489l-15.912 75.459 112.536 1.445-5.513-74.515z"/><path fill="#e3c7c2" d="M127.37 224.818l6.935 9.135 16.722 1.816 4.71-10.527-13.31-4.761z"/><path fill="#c7a39e" d="M129.683 214.585l22.532.529 3.522 10.128-28.367-.424z"/><path fill="#54b08b" d="M146.376 276.816l-4.535.867-2.984 4.077 2.355-.321 1.061-1.807 4.703-.992z"/><path d="M150.862 272.646c-.327-.012-1.333 1.583-1.333 1.583l-4.608 2.58.869 2.734s8.61-1.966 9.078-1.949c.466.015-4.006-4.948-4.006-4.948" fill="#5ea68a"/><path fill="#54b08b" d="M153.025 279.641l-.72.381-3.878 5.266 7.45 5.375 7.534-5.782-4.029-4.947z"/><path d="M151.989 277.585l.317 2.438 3.42 2.206 3.658-2.295.82-2.783s-8.152-.163-8.022-.289c.131-.123-.193.723-.193.723" fill="#5ea68a"/><path fill="#54b08b" d="M165.702 277.272l4.445 1.192 2.628 4.277-2.323-.493-.903-1.875-4.604-1.323z"/><path d="M161.584 272.792c.327.013 1.192 1.673 1.192 1.673l4.373 2.905-1.097 2.665s-8.417-2.58-8.883-2.597c-.468-.015 4.415-4.646 4.415-4.646" fill="#5ea68a"/><path fill="#5ea68a" d="M163.429 265.179l2.458.045 2.097-3.614-1.843-2.901 5.697-6.168 8.84-4.057-5.105 9.814-1.353 7.544-11.444 8.623-.37-3.985zM149.611 264.683l-2.454-.13-1.784-3.756 2.085-2.759-5.153-6.556-8.466-4.678 4.25 10.151.707 7.617 10.735 9.653.645-4.179zM154.241 260.471l-1.918 1.006-1.939 2.631 11.076 1.193 1.027-1.86-1.18-1.709-2.232-2.009z"/><path fill="#5ea68a" d="M154.268 255.43l-.196-.908 2.241-.907 4.656 2.29-.518.672.856 5.155-2.47-.879-1.853.619-1.518-.615-3.143.62 3.161-3.256-1.229-1.929z"/><path fill="#54b08b" d="M149.771 266.213l-1.216 1.501.976 6.511 6.403 5.786 6.842-5.546 1.577-6.21-2.594-2.1z"/><path d="M159.138 277.419l1.878-1.526.362-8.451-1.811-.065-.429 10.042zm-4.144 1.741l.94.851.869-.7.511-12.012-1.809-.065-.511 11.926zm-3.918-3.54l1.746 1.579.429-10.047-1.809-.065-.366 8.533z" fill="#74c7a5"/><path fill="#54b08b" d="M149.544 262.966l-.989 4.748 15.794.565.004-.024-.836-5.045-3.833.866-3.038-1.733-3.725 1.579z"/><path fill="#96d6bd" d="M154.072 254.522l-1.657.455-.031 1.824 3.296-.395z"/><path d="M150.406 241.514c1.217.041 2.161.98 2.114 2.092-.049 1.11-1.07 1.978-2.285 1.937-1.212-.049-2.159-.984-2.112-2.096.049-1.111 1.071-1.978 2.283-1.933m14.093.505c-1.214-.045-2.238.821-2.282 1.933-.049 1.11.897 2.051 2.111 2.092 1.213.044 2.236-.822 2.283-1.934.047-1.111-.899-2.051-2.112-2.091zm5.166 3.173c-.989-.033-1.825.671-1.864 1.583-.039.907.732 1.672 1.725 1.709.991.032 1.825-.676 1.864-1.583.037-.907-.734-1.673-1.725-1.709zm-24.679-.883c.993.037 1.764.802 1.726 1.709-.039.908-.875 1.616-1.866 1.579-.989-.036-1.76-.802-1.723-1.709.039-.908.873-1.616 1.863-1.579zm12.57-4.927c1.434.053 2.551 1.159 2.494 2.47-.055 1.314-1.264 2.336-2.698 2.287-1.434-.054-2.549-1.16-2.492-2.475.055-1.311 1.261-2.331 2.696-2.282z" fill="#5ea68a"/><path fill="#54b08b" d="M134.482 271.014l.7 6.197 5.184 1.652-1.45-4.631zM177.356 271.014l-.703 6.197-5.183 1.652 1.45-4.631z"/><path fill="#c7a39e" d="M128.082 61.485l-6.869 6.058 14.1 8.13 7.275 17.843 6.838-7.828 9.466 6.274 12.789-19.527 14.766-10.338-10.984-4.472-15.774 5.447-6.4 4.374-2.437 3.78-4.126-3.605-4.104-3.776z"/><path fill="#9e857d" d="M146.038 89.461l-3.45 4.055 8.988 5.57 7.316-7.124zM132.601 107.169l12.092 14.743 18.726-1.199 15.836-18.754z"/><path fill="#383838" d="M158.733 58.148l.956 4.926 17.259-3.162 9.499 2.185v-1.8l-10.16-4.916zM142.869 59.127l-15.937.244-6.329 6.99.61 1.182 6.838-3.242 14.555-.169z"/><path fill="#eddbdb" d="M146.726 67.621l-.252 12.217-3.886 13.678 16.304-1.554-4.374-11.829-1.229-12.687z"/><path fill="#fff" d="M138.154 109.159l34.286-4.136-9.599 11.688-17.519 1.05z"/><path fill="#c7a39e" d="M169.545 88.574l12.952 8.268-1.502 20.026 5.463-22.113zM137.728 91.146l-8.629 11.663 3.139 17.711-6.954-19.08z"/><path d="M163.799 86.247c.849 0 1.534.718 1.534 1.605 0 .885-.686 1.605-1.534 1.605s-1.536-.72-1.536-1.605c0-.887.688-1.605 1.536-1.605" fill="#9e857d"/><path d="M134.094 68.158c2.252 0 4.075 1.825 4.075 4.075 0 2.252-1.823 4.077-4.075 4.077-2.25 0-4.075-1.825-4.075-4.077 0-2.25 1.825-4.075 4.075-4.075M171.834 65.525c2.25 0 4.075 1.825 4.075 4.075 0 2.252-1.825 4.077-4.075 4.077s-4.075-1.825-4.075-4.077c0-2.249 1.825-4.075 4.075-4.075" fill="#2b2b2b"/><path fill="#c7a39e" d="M181.74 67.997l11.794-.348-1.04 3.99zM128.098 74.477l-9.483-.279.836 3.209z"/></g></svg>