<svg xmlns="http://www.w3.org/2000/svg" viewBox="0 0 400 400"><path fill="#47a078" d="M142.595 114.1l-17.293-6.408-6.145 3.512-9.921 9.129 14.046 12.641 5.531-4.214 15.713-9.216z"/><path fill="#33302d" fill-opacity=".102" d="M100.833 382.186l129.962 17.882 80.662-13.934-81.361-10.488z"/><path fill="#fef3f2" d="M124.424 158.784l-5.005-1.318-23.087-10.358-5.003-14.222 5.706-.614 5.794 9.656 15.626 4.741h4.476l6.935-.177z"/><path fill="#f2d8d4" d="M122.053 147.723l-9.48 5.442-9.744-11.237 17.117 2.458zM150.759 185.381l-12.465 8.956-18.875-36.871 5.005-5.267-3.687-3.687 9.129-2.02 18.962 25.196z"/><path fill="#fef3f2" d="M171.564 160.188l-7.023 3.16-7.198 6.144-8.515 2.196-10.534 22.649 41.346-1.581 3.337-28.442z"/><path d="M156.026 166.948l-7.198 4.74 11.5 7.199 5.97-6.585s-4.829-6.672-7.374-5.617c-2.546.965-2.898.263-2.898.263z" fill="#34785a"/><path fill="#3d8e6a" d="M157.167 160.539l-3.248 2.546-5.091 8.603 17.47.614-1.757-8.954z"/><path d="M143.297 136.661l-9.482 2.196 17.996 13.781 2.985 3.336 7.55-5.003 7.285 11.5-1.668 1.667c5.443.351 10.272.702 9.92.351l-19.84-19.137-3.95-6.495-10.796-2.196z" fill="#50ad83"/><path d="M151.812 152.638l2.107 10.447s4.126.351 10.711.877l-.879-9.569-1.403-3.422-10.536 1.667zM143.473 93.909l-6.671 21.947-2.986 23.001h20.279l2.546-6.936z" fill="#82c6a5"/><path d="M119.244 95.666l21.771 11.939 17.82-7.199s-12.641-33.357-11.763-33.798c.965-.351-36.431 3.073-36.431 3.073l8.603 25.985z" fill="#3d8e6a"/><path d="M131.709 82.848l-5.531-5.793-26.862 5.003 9.393 15.011 2.107 6.76c3.863-3.95 11.236-6.497 15.802-11.061 2.897-2.897 3.423-8.339 5.091-9.92z" fill="#c0c62b"/><path d="M112.485 109.447l6.672 1.757 16.24-12.818 2.985-8.427-6.672-7.111c-4.214 4.038-14.484 14.573-20.893 20.982l1.668 5.617z" fill="#c6cf2a"/><path fill="#d6db30" d="M119.157 111.204l9.656 2.545 10.183-8.515 5.268-9.217-5.882-6.058z"/><path fill="#e0e049" d="M128.813 113.749l7.989 2.107 4.213-8.251 5.004-9.658-1.755-1.93z"/><path fill="#ede976" d="M72.366 83.376l43.717-12.38-31.778-47.315z"/><path fill="#e0e049" d="M56.39 78.897l34.324 6.146-5.706-52.847-2.985-3.599z"/><path fill="#c0c62b" d="M40.851 89.607l2.722 53.814 18.347-34.413 8.252-30.901L84.92 32.021 41.29 78.107z"/><path fill="#34785a" d="M53.844 61.253L36.638 77.494l6.935 65.927 2.37-64.787z"/><path fill="#3d8e6a" d="M92.821 37.814l-9.042-22.473-47.141 62.153 9.305 1.14L84.92 32.021z"/><path fill="#50ad83" d="M139.786 76.353L83.779 15.341l1.141 16.68 17.821 35.904z"/><path d="M70.874 93.207c-.878-1.141 4.74 22.825 4.74 22.825l21.596 11.062 31.603-13.345-26.072-12.114-21.683 1.494-10.184-9.922z" fill="#3d8e6a"/><path fill="#e6e6e4" d="M118.278 108.482l-1.053 5.179-5.355 3.599-1.316-3.599-5.356 3.862-2.282-3.95-5.881 3.512-2.635-3.6z"/><path fill="#c0c62b" d="M281.999 289.848l-9.832 33.709-60.573-21.068 42.927-35.992z"/><path fill="#e0e049" d="M281.56 214.44l.439 75.408-22.298-10.535-19.138 17.469-3.511-67.771 24.141-24.404 10.886-3.95z"/><path fill="#c0c62b" d="M263.477 206.89l11.06 9.92-14.836 62.503-15.889-26.248z"/><path fill="#ede976" d="M281.56 214.44l-20.192 6.934-13.43 27.214-27.653-49.686 46.352-39.241z"/><path fill="#50ad83" d="M218.353 364.728l12.905 22.562 13.87 2.721 22.299-2.809-10.184-8.603-12.641-34.677z"/><path fill="#4d8f6f" d="M231.258 387.29l-2.457 4.3 39.942.088-1.316-4.476z"/><path fill="#34785a" d="M267.427 387.202l-3.161-11.5-22.736-20.016-11.412 19.138 19.049 7.813z"/><path fill="#50ad83" d="M193.774 355.51l-11.412 10.799-17.382 15.714 31.164 5.267z"/><path d="M164.454 382.023v5.091l31.69.176-.352-4.916c-10.884-.088-23.7-.263-31.338-.351z" fill="#4d8f6f"/><path fill="#34785a" d="M196.144 387.29l16.943-3.863-14.046-17.732-16.767.702z"/><path d="M196.144 387.29l14.222.088-2.458-4.828c-4.126-.088-9.394-.176-15.012-.176l3.248 4.916z" fill="#3c6952"/><path fill="#5e7736" d="M248.727 248.588l-32.831.263-37.484 32.833 4.213 84.8 41.522 8.077 6.41-9.129z"/><path fill="#5e783d" d="M182.362 366.309l28.004 21.069 20.892-.088 33.798-8.867-30.549-26.511z"/><path fill="#6f8c47" d="M182.625 366.484l46.264 6.057 15.713-1.843 27.565-47.141-12.466-44.244-13.168-7.988-13.87 12.29z"/><path fill="#5e783d" d="M243.373 283l1.932 6.936 14.396-10.623-6.32-17.821zM182.274 366.397l54.515 10.71 3.95-6.059 24.317 7.375 22.21-5.531-15.099-49.335z"/><path fill="#798f50" d="M234.155 242.18l14.572 6.408-70.315 33.096 6.671-32.481z"/><path fill="#f2d8d4" d="M241.266 262.02l-14.573 6.583 3.336 20.717 15.276.616 6.584-9.307z"/><path fill="#fef3f2" d="M248.113 252.801l-5.53-4.126-15.89 19.928 25.196 12.026 2.458-16.327z"/><path fill="#50ad83" d="M194.213 216.721l-11.236 10.097 2.106 22.385 63.644-.615-11.5-15.889z"/><path fill="#3d8e6a" d="M193.51 217.335l-10.533 9.483 59.606 21.857 2.633.351 13.344-9.83-9.041-13.257-50.917-8.515z"/><path fill="#5e7736" d="M182.977 226.818l66.542-.879 18.434-25.106-40.645-19.402-51.969 16.857z"/><path d="M178.499 182.045l-3.161 16.242 73.828-.178-7.461-46.612s-69.176 5.88-69.264 7.111c.001 1.229 6.058 23.437 6.058 23.437z" fill="#798e4d"/><path d="M176.568 180.73l-1.229 17.558 13.871-28.971-5.267-21.331s-10.71 5.091-10.535 6.407l3.16 26.337z" fill="#798e4d"/><path d="M176.744 165.805l6.934 8.868-8.339 23.615.176-17.91s-2.633-11.939-2.107-12.29c.615-.351 3.336-2.283 3.336-2.283z" fill="#f1f2f3"/><path fill="#e6e6e4" d="M171.213 167.562l2.546 8.866 1.58 21.86 1.844-26.074z"/><path fill="#e0e049" d="M190.263 162.471l-14.573 3.597-7.11-17.205 21.683-4.565z"/><path d="M188.507 146.492l-5.355 6.233-9.832 4.565-9.393-16.767s12.905-1.93 13.695-2.722c.791-.79 10.623 2.897 10.623 2.897l.262 5.794z" fill="#b9b4b4"/><path fill="#c5c2c1" d="M168.843 136.837l2.282 8.954 13.695-2.633-3.687-21.596-13.344 8.866z"/><path fill="#afaaa9" d="M182.362 136.749l2.458 6.409-1.668 9.568 13.695 2.897 7.9-16.328-13.08-10.359z"/><path fill="#c0bbba" d="M175.865 125.6l-2.545 6.497 11.5 11.061 13.431-9.57-5.794-12.992z"/><path d="M246.533 119.544s-2.106 35.816-1.229 35.992c.877.263 10.798 7.725 10.798 7.725l7.725-28.53s-2.897-16.944-3.688-16.33c-.877.616-13.606 1.143-13.606 1.143z" fill="#e6e6e4"/><path fill="#cdcacb" d="M261.633 131.746l-2.195 5.266-2.985 13.959 8.515 2.457 4.126-17.118z"/><path fill="#f1f2f3" d="M258.647 118.138l5.619 7.462 4.828 10.71-9.656.702-5.091-12.115z"/><path d="M244.339 79.689c-1.932-.088 22.736 24.316 22.736 24.316l-2.81 21.595-10.271-.79-14.836-33.708c.001 0 5.093-11.413 5.181-11.413z" fill="#cdcacb"/><path fill="#e0dfdd" d="M245.041 71.525l9.656 10.708 12.378 21.772-9.744-.438-21.156-16.241z"/><path fill="#f1f2f3" d="M246.884 82.233l2.546-1.228 7.901 22.562-3.336 21.243-22.385-28.618z"/><path fill="#e6e6e4" d="M167.175 142.544l3.95 3.247 12.553 28.882-6.495-2.459-15.89-22.737z"/><path fill="#f1f2f3" d="M160.767 143.509l-2.546 8.076 15.538 24.843 3.424-4.214-13.695-22.912z"/><path d="M166.386 125.687l6.934 6.41-2.194 13.694-7.637 3.511s-5.003-19.313-4.565-20.015c.438-.702 7.462-3.6 7.462-3.6z" fill="#f1f2f3"/><path fill="#d9d7d6" d="M157.781 127.532l-1.14 4.389 1.58 19.664 5.267-2.283.79-17.556z"/><path fill="#47a078" d="M90.802 78.634l11.939-10.709 28.793-22.035-5.355 31.165-16.416 9.304z"/><path fill="#3d8e6a" d="M72.366 83.376l-2.194-5.269 32.569-10.182 7.022 18.434-37.134 8.605z"/><path fill="#47a078" d="M65.695 94.786l4.477-16.679 9.832 6.146z"/><path fill="#47a078" d="M66.046 93.558l13.958-9.305 3.775 16.942-6.496 3.688-1.669 11.149-13.694-7.024z"/><path fill="#e0e049" d="M133.992 32.986l5.794 43.367 45.473-19.226-23.264-27.828-28.969-15.537z"/><path fill="#c0c62b" d="M166.386 34.566l-4.391-5.267-22.209-11.939-2.546 3.424 14.836 16.153 6.145 3.248z"/><path d="M140.927 14.727l-3.687 6.057 7.374 38.274s4.477 8.692 4.214 9.481c-.175.878-1.668 17.118-1.668 17.118l-20.981-8.603 4.478-75.672 10.27 13.345z" fill="#50ad83"/><path fill="#3d8e6a" d="M161.995 27.104L130.657 1.383l6.583 19.401 21.595 10.974z"/><path fill="#fef3f2" d="M253.469 156.325l13.168 3.336 7.9 57.149-9.393 12.991-12.905-12.728-3.072-18.963-4.126-7.021z"/><path d="M253.469 156.325l11.499-2.897 1.669 6.233-7.287 11.675-10.183 26.773s-.089-13.343.088-24.58l4.214-17.204z" fill="#f2d8d4"/><path fill="#798e4d" d="M253.469 156.325l4.214 10.886-8.516 30.899-6.672-3.246-10.534-34.062z"/><path d="M253.469 156.325l.526 1.404-4.389 9.131-16.855 31.34c0-.09 2.811-37.311 3.248-36.872.352.439.527-.439 1.141-1.58l16.329-3.423z" fill="#798e4d"/><path fill="#e0e049" d="M245.041 152.726l12.202-1.58 7.725 2.282-7.285 13.783-14.223-.702-4.301-10.886z"/><path fill="#e0e049" d="M244.251 147.46l12.992 3.686-7.637 15.714-6.146-.351-4.301-10.886v-.087zM196.232 153.515l-8.34-3.248-2.283 4.215 3.6 14.834 3.424 9.482h39.942s.79-23.703.088-23.527c-.702.089-36.431-1.756-36.431-1.756z"/><path fill="#e0e049" d="M192.545 152.024l-4.652-1.757-4.741 2.459 6.057 16.591 1.054-12.465z"/><path d="M231.961 160.802c.176 1.492-5.004 10.184-5.004 10.184l-31.515.175-7.549-20.894 12.554-6.758 36.869-1.845-5.355 19.138z" fill="#fef3f2"/><path fill="#f2d8d4" d="M190.263 156.852l-2.37-6.585 7.461-4.038 5.881 4.391z"/><path d="M207.38 141.577l-1.053 20.102 30.988-20.015 3.687-27.74s-3.512-19.928-2.282-20.893c1.229-.965 2.897-40.557 2.897-40.557l-33.533.439-.704 88.664z" fill="#f3d8d4"/><path fill="#d5d3d3" d="M243.197 156.325l.263 10.184-10.709 31.691-.614-13.959-.088-18.085z"/><path fill="#e6e6e4" d="M231.961 160.802l-10.008 10.272 10.798 27.126 2.633-32.571z"/><path fill="#cdcacb" d="M239.51 134.378l-4.126 31.251 8.076.88 10.535-41.699-11.412-4.214z"/><path fill="#f1f2f3" d="M237.755 114.363l-3.248 11.061-12.554 45.65 13.431-5.445 9.306-35.904z"/><path fill="#c2bdbd" d="M241.002 113.924l3.688 15.801 9.305-4.915-7.813-24.755z"/><path fill="#e6e6e4" d="M232.311 95.052l-6.144 10.884 8.34 19.488 10.183 4.301 1.492-29.67z"/><path fill="#f1f2f3" d="M225.289 59.586l.878 46.35 20.015-5.881z"/><path d="M245.656 56.688l8.339 5.793.702 19.751-10.446-2.369s-13.694-21.509-13.782-20.717c-.088.79 4.652-5.795 4.652-5.795l10.535 3.337z" fill="#d4d0d0"/><path fill="#e6e6e4" d="M227.395 53.703l-9.303 3.707 28.09 42.645 3.248-19.05-11.85-24.317zM145.053 103.128l-4.213 5.003 15.801 23.789 7.637-.175s-11.061-35.378-10.447-35.378c.703-.087-8.778 6.761-8.778 6.761z"/><path fill="#cdcacb" d="M149.003 100.055l.439 7.55 14.836 24.141 9.042.351-6.584-35.29z"/><path fill="#f1f2f3" d="M149.179 79.25l-2.019 6.407-6.32 22.474 8.602-.526 8.428-9.219 3.511-16.416z"/><path fill="#e6e6e4" d="M145.492 64.063l-4.828 3.161 6.496 18.433 17.996-1.842-9.393-17.909z"/><path fill="#cdcacb" d="M149.354 50.981l-4.74 8.077-3.95 8.166 14.397 3.95 2.37-16.944z"/><path fill="#d4aba5" d="M181.924 127.444l24.403 34.235 19.05-29.758-17.908-.263z"/><path fill="#fef3f1" d="M151.812 47.208l3.081 54.434 13.95 30.455 38.626-.439 10.623-29.804V57.41l-6.761-37.591-41.61 7.725z"/><path fill="#f2d8d4" d="M153.743 43.609l-1.667 9.568 21.332-11.588 29.32 3.073 17.032 14.132-10.449-22.911-30.022-.791-2.019 2.722-12.553-1.579zM164.63 62.482l-1.756-.264-6.584 2.196L174.9 92.68l5.706-8.515 2.721 8.69 26.863-26.249s-10.271-3.688-10.798-3.334c-.615.263-11.852 4.74-11.852 4.74l-4.916 4.74-2.81 4.038-2.633-4.038-2.633-4.653-9.918-5.617z"/><path d="M193.598 74.069c1.746 0 3.161 1.416 3.161 3.161s-1.415 3.161-3.161 3.161c-1.745 0-3.16-1.416-3.16-3.161s1.415-3.161 3.16-3.161zM167.263 74.332c1.746 0 3.161 1.416 3.161 3.161s-1.415 3.16-3.161 3.16c-1.745 0-3.16-1.416-3.16-3.16 0-1.744 1.415-3.161 3.16-3.161z" fill="#33302d"/><path d="M177.27 108.043c-.351.264-7.198 1.229-7.198 1.229l12.553 7.374 14.309-7.813-19.664-.79z" fill="#739d46"/><path fill="#d5aca6" d="M179.202 88.906L174.9 92.68l4.477 3.688 3.95-3.512z"/><path fill="#d8d6d5" d="M233.453 28.86l17.907.703 7.2 25.105-9.393 1.231-11.587.789-19.488-8.602z"/><path fill="#cdcacb" d="M258.56 54.668l-4.213 17.734-16.767-15.714z"/><path d="M182.186 10.513l-12.29-3.248-17.82 29.672s16.153-3.423 18.523-4.389c2.282-.878 22.122-16.679 22.122-16.679l-10.535-5.356z" fill="#d1cfd0"/><path fill="#f7f8fa" d="M215.105 8.845l-4.652-5.794L199.831.067l-29.935 7.198 6.234 11.149 5.266 11.851 29.935-10.446z"/><path fill="#f1f2f3" d="M220.899 21.399l13.696-15.275-24.142-3.073-25.984 24.844 26.862 8.603z"/><path fill="#e6e6e4" d="M216.335 47.647l10.622 2.808 24.403-20.892-16.765-23.439-34.94 21.771z"/><path fill="#f1f2f3" d="M199.655 27.895l-3.072 3.95 21.509 25.565 19.488-.722z"/><path fill="#d1cfd0" d="M176.393 24.646l-7.111 13.344 32.832.263-2.459-10.358h-18.698z"/><path fill="#f1f2f3" d="M144.614 59.058l3.248-18.873 28.268-21.771 8.339 9.481z"/><path fill="#c2bdbd" d="M156.29 64.414l7.198-2.897 11.588 2.809-.527 3.775-10.973-3.862zM186.4 64.15l1.141 3.863 13.08-3.336 9.569 1.93-9.656-5.266z"/><path fill="#fef9f9" d="M177.183 72.753L174.9 92.68l8.427.176-.702-20.103z"/><path fill="#5e7736" d="M168.404 106.111l4.565 1.757 7.725-2.547 14.221 1.141 5.268-2.193-3.249 4.564-14.923 2.458-11.939-2.019z"/><path fill="#50ad83" d="M70.172 78.107l39.591 8.252.526 15.714L94.4 113.485l-17.293-8.602z"/><path fill="#82c6a5" d="M109.763 86.359l19.05 27.39-34.413-.264z"/><path d="M106.076 98.298c1.668 0 2.985-1.316 2.985-2.983 0-1.67-1.317-2.985-2.985-2.985-1.669 0-2.984 1.316-2.984 2.985 0 1.667 1.316 2.983 2.984 2.983z" fill="#34785a"/><path fill="#82c6a5" d="M110.114 121.562l12.291 16.503 3.159 1.933 8.252-1.141-2.721-11.501z"/><path fill="#50ad83" d="M122.405 138.065l-2.459 6.321 2.107 3.337 7.813-1.141 3.95-7.725z"/><path fill="#3d8e6a" d="M119.946 144.386l-12.992 2.283 9.393 4.565 8.077.965 5.442-5.707z"/><path fill="#34785a" d="M106.954 146.669l5.619 6.496 11.851-.966z"/><path fill="#f2d8d4" d="M252.239 217.073l-9.656 31.602 11.764 15.627 20.19-47.492z"/></svg>