<svg xmlns="http://www.w3.org/2000/svg" viewBox="0 0 400.002 400.002"><path fill="#2b2b2b" fill-opacity=".102" d="M124.884 380.552l84.692-8.257 91.061 10.523-96.254 16.683z"/><path fill="#1a7155" d="M212.191 380.412l-6.98 5.22-.044 3.67 21.331.027 4.004-12.628-5.339-4.461z"/><path fill="#30411b" d="M168.791 327.067l-3.214 12.886 49.206 20 13.893-14.711 2.208-35.404-56.634.405z"/><path fill="#308b69" d="M216.726 354.74l-11.515 30.892 19.816-.033 5.594-14.667z"/><path fill="#235d49" d="M194.505 367.307l.856 18.506 5.512-.188 4.768-18.846z"/><path fill="#1a7155" d="M170.53 378.173l-11.74 4.921.143 3.425 24.112.875 22.596-20.615 1.1-5.613z"/><path fill="#308b69" d="M190.742 346.194l-15.585 15.735-16.367 21.165 22.116.685 25.835-22.613-7.421-15.246z"/><path d="M177.494 315.263l7.02 32.389-9.357 14.281 24.163-16.009 6.495-35.814s-22.453-18.837-23.9-17.096c-1.452 1.748-4.417 22.248-4.417 22.248h-.004z" fill="#c6a49f"/><path d="M177.494 315.263l1.799 8.304 23.107 5.35 3.41-18.806s-5.473-4.591-11.19-9.034c-5.23 1.381-10.805 2.88-15.549 4.216-.881 5.158-1.577 9.97-1.577 9.97z" fill="#9c7e77"/><path fill="#607941" d="M237.856 319.348l36.444 12.465-38.093 35.268z"/><path fill="#6a9948" d="M231.048 358.403l8.311-10.175 34.941-16.415-7.592 42.248z"/><path fill="#98c166" d="M209.222 303.19l-15.719 3.411 30.972 77.651 2.023 5.077 40.21-15.268-27.349-25.833z"/><path fill="#3a592a" d="M190.389 282.298l-16.537-16.871-11.245 17.018 2.97 57.508 43.386-51.822z"/><path fill="#45632e" d="M259.232 250.828l7.248 15.526-27.121 81.874-76.752-65.783 72.203-43.829z"/><path fill="#374f25" d="M267.178 253.756l3.098 1.142-3.796 11.456-7.637-7.525z"/><path fill="#c6a49f" d="M262.217 234.005l-6.737-5.125-12.486 10.009 1.821 5.295 14.028 14.645 11.43-3.931z"/><path fill="#e2c6c2" d="M271.442 227.225l-7.532 1.625-8.314-.137 14.677 26.185 5.07-12.074z"/><path fill="#45632e" d="M273.52 192.631l-4.1 13.15-1.478 6.205 6.283 15.351 14.159-6.89 12.417-21.304z"/><path d="M267.942 211.986l-1.366 5.704 7.653 9.647 11.279-1.96 2.879-4.931c-7.217-3.002-15.804-6.563-20.441-8.461h-.004z" fill="#9cce7a"/><path fill="#c6a49f" d="M266.575 217.69l-2.665 11.16 11.433 13.974 10.161-17.447z"/><path fill="#507033" d="M251.96 193.309l8.502 8.557 8.958 3.915 31.381-6.638-34.651-43.194-22.375 20.267zM170.775 191.278l-8.417 10.768 4.454 25.111 9.319 12.529-15.228 9.787 1.704 32.972 82.208-38.264 10.781-15.468 4.866-26.847z"/><path fill="#308b69" d="M175.753 234.439l-14.85 15.034 83.912-5.292 10.781-15.468z"/><path fill="#48ac86" d="M166.812 227.157l88.668 1.723-58.794 10.823-35.783 9.77z"/><path fill="#6c884c" d="M164.62 156.626l-2.258 45.42 98.1-.18 5.688-45.917z"/><path fill="#bedb8b" d="M182.462 145.221l-17.842 11.405 16.922 30.668 12.991-6.317-2.979-17.308z"/><path fill="#9cce7a" d="M217.015 172.894l-11.432-3.527-14.029-5.698-3.663 9.055-6.349 14.57 34.076 9.276z"/><path fill="#98c166" d="M232.083 156.071l-6.599 3.683-19.901 9.613 10.035 27.203 34.911-16.895z"/><path fill="#89ae5c" d="M250.529 179.675l17.467-26.535-24.739-14.383-17.773 20.997z"/><path fill="#c6a49f" d="M248.501 52.859l14.176 13.119-14.598 95.201-12.482-16.288-30.253-1.061z"/><path fill="#372614" d="M201.528 160.511l-22.47-2.784-12.887-13.552 7.585-8.693 22.265.903 5.705 8.87z"/><path fill="#e2c6c2" d="M163.877 40.376l-7.827 54.583.212 19.253 21.576 26.235 27.506 3.383 34.854-26.248 8.303-64.72-43.157-30.467z"/><path fill="#c6a49f" d="M165.572 72.325l11.424 8.25 13.328 12.588 12.376 4.761 15.021-11.317 13.541-6.982-13.119-6.982-11.848 4.017-4.017 2.117-4.761 2.116-5.077-3.278-5.711-4.021-9.521-5.923z"/><path fill="#372614" d="M204.496 37.838l-21.352-1.779-11.514-7.623 10.23-12.39 19.539 5.592z"/><path fill="#3e3229" d="M170.928 44.244l16.414-14.043-9.882-4.511-17.358.603-12.305 9.429 9.354 9.987z"/><path fill="#554537" d="M147.797 35.722l10.154 1.904 19.465-11.847 5.039-9.413-2.504-5.23-18.401 2.586z"/><path fill="#372614" d="M155.942 65.296l-15.148-6.808 7.531-10.813-.528-11.953 10.154 1.904 12.977 6.618-8.206 4.174z"/><path fill="#554537" d="M144.958 70.486l3.899-10.857 13.865-11.211-4.123 28.774-3.247 5.285z"/><path fill="#3e3229" d="M134.099 94.008l8.276-12.928 11.771-4.314 4.453.426-2.552 17.767.215 19.253-13.242-2.368z"/><path fill="#2d1f10" d="M134.47 76.343l-1.135 13.713 8.539 3.636 6.008-8.287 6.264-8.639-8.196-5.391z"/><path fill="#372614" d="M148.857 59.629l-10.278.178-4.109 16.536 8.877.191 10.799.232z"/><path fill="#554537" d="M130.66 56.034l3.81 20.309 14.387-16.714-.259-5.854-.273-6.1z"/><path fill="#372614" d="M135.527 111.673l9.626-1.11-3.279-16.871-7.404-17.349-11.426 16.926z"/><path fill="#2d1f10" d="M134.047 125.638l1.48-13.965 6.347-17.981 14.388 20.52-7.514 13.225z"/><path fill="#372614" d="M151.396 140.658l-17.349-15.02 22.215-11.426 7.187 21.049z"/><path fill="#2d1f10" d="M179.058 157.727l-18.394-6.321-9.268-10.748 4.866-26.446 21.58 26.235z"/><path fill="#372614" d="M174.454 159.699l-27.08-8.463 4.022-10.578 27.662 17.069z"/><path fill="#e2c6c2" d="M266.15 155.949l-58.905 17.923-42.625-17.246 29.159-14.219 41.818 2.484 22.344-2.72z"/><path fill="#9c7e77" d="M207.245 173.872l-11.438-26.722-2.028-4.741 41.818 2.482z"/><path fill="#554537" d="M236.02 57.939l11.698 3.527 10.772 12.857 13.725-6.822-10.806-16.544-20.854-22.248-19.768-.388-2.16 7.997 9.01 5.319z"/><path fill="#3e3229" d="M204.496 37.838l15.536-1.674.755-7.843 40.622 22.636-3.281-29.935-8.635-3.292-2.788-13.211-15.201 5.935-26.279.897-.712 13.108z"/><path fill="#554537" d="M188.314 8.116l16.608.846 5.394 8.461-1.629 5.718-4.191 14.697-5.504-12.69-16.537-8.782-2.504-5.23z"/><path fill="#3e3229" d="M178.37 6.846l9.944 1.27-3.238 4.56-2.621 3.69-20.905-2.644z"/><path fill="#6f6054" d="M210.528.501l-22.214 7.615 22.002 9.307 13.239-4.774-2.024-4.743z"/><path fill="#554537" d="M246.705 4.519l-25.174 3.387-11.215 9.517 18.582-.361 13.787-.273z"/><path fill="#372614" d="M258.128 21.022L246.705 4.519l-4.02 12.27 5.281 9.64z"/><path fill="#6f6054" d="M272.515 23.349l-14.387-2.327-10.162 5.407.801 1.462 7.381 13.464 13.924 6.232 1.386-7.312z"/><path fill="#554537" d="M290.285 53.601l-18.827-13.326-15.31 1.08 5.261 9.602 13.961 21.372 12.632-2.804z"/><path fill="#6f6054" d="M288.98 94.428l-14.401-14.479 3.862-16.827 11.844-9.521 2.648 29.83z"/><path fill="#372614" d="M269.873 91.896l4.219 16.581 14.888-14.049-10.539-31.306-17.88-13.709 2.116 16.565-8.444 14.522z"/><path fill="#3e3229" d="M244.348 85.22l17.658 11.634 7.867-4.958-7.196-25.918-14.959-4.512z"/><path fill="#2d1f10" d="M264.159 108.818l-8.781 4.76-2.219-14.786-8.811-13.572 25.525 6.676 4.274 13.514z"/><path fill="#372614" d="M248.505 112.627l4.654-13.835 11 10.026 5.5 19.675-11.644 7.95-4.157-12.949z"/><path fill="#3e3229" d="M270.262 131.45l15.484-17.098 3.234-19.924-19.107-2.532-11.003 32.368z"/><path fill="#372614" d="M292.51 121.937l-13.936 13.835-8.915-7.279 19.321-34.065 8.181 14.815z"/><path fill="#2d1f10" d="M266.15 155.949l-1.203-7.747 4.712-19.709 22.851-6.556-5.186 18.616z"/><path fill="#372614" d="M273.41 164.998l-7.26-9.049 26.36-34.012 7.405 17.982z"/><path fill="#2d1f10" d="M235.597 144.891l30.553 11.058 3.509-27.456-10.789-4.229-5.012-.77z"/><path fill="#372614" d="M266.15 155.949l3.509-27.456-18.786 21.924z"/><path fill="#c6a49f" d="M221.213 106.068l15.655-2.538-6.982 10.791zM207.249 102.473l8.461 3.595.211 10.792-2.538 3.172-.423-5.5zM181.652 99.512l-9.733 10.788-.211 3.81-1.905-6.56 5.077-8.461zM158.377 95.28l10.156 4.866-5.923 6.134z"/><path fill="#f0ddda" d="M192.44 77.615l1.162 9.309-8.672 8.884 17.77 2.116-4.866-10.155 4.444-8.992z"/><path fill="#9c7e77" d="M193.074 104.061l-8.144-8.253 17.77 2.116z"/><path fill="#554537" d="M206.295 76.66l13.119-1.585 11.848 4.55-10.686-9.309-14.171 1.055zM186.729 73.594l-9.626-3.067-11.531 1.798 11.636-6.876 11.211 3.701z"/><path d="M176.996 76.343c2.338 0 4.232 1.896 4.232 4.232 0 2.338-1.895 4.232-4.232 4.232s-4.231-1.895-4.231-4.232c0-2.336 1.894-4.232 4.231-4.232z" fill="#2b2b2b"/><path fill="#c6a49f" d="M120.666 232.602l-18.346-13.767 20.575-1.438z"/><path d="M216.133 81.104c2.337 0 4.231 1.895 4.231 4.232s-1.894 4.232-4.231 4.232c-2.338 0-4.232-1.896-4.232-4.232 0-2.338 1.894-4.232 4.232-4.232z" fill="#2b2b2b"/><path fill="#3a592a" d="M174.88 109.032l10.789.74 6.665-.529 6.242 3.702 11.952 2.009-14.49 12.906-13.964-2.856z"/><path fill="#fff" d="M181.123 112.839l2.007 7.299 13.648 2.644 6.133-6.24-13.327-1.27z"/><path fill="#372614" d="M227.637 41.637l-23.141-3.799 16.291-9.517z"/><path fill="#9c7e77" d="M162.722 48.418l41.774-10.58-17.154-7.637z"/><path fill="#72c9a6" d="M123.971 179.838l5.909-12.833 41.808-13.827 24.998 86.525-29.84 8.288-42.326 3.025-10.353-49.468z"/><path fill="#35785d" d="M108.422 174.104l21.458-7.099 5.374 28.263-21.087 6.28z"/><path fill="#2b2b2b" fill-opacity=".102" d="M149.978 242.153l15.133-4.579 16.976-1.387-16.935 6.535z"/><path fill="#1a7155" d="M165.885 238.956l-1.084 1.207.126.671 3.888-.77.269-2.447-1.135-.62z"/><path fill="#30411b" d="M156.036 230.813l-.115 2.464 9.691 1.86 2.001-3.187-.887-6.532-10.304 2.13z"/><path fill="#308b69" d="M165.779 234.115l-.978 6.048 3.608-.726.488-2.876z"/><path fill="#235d49" d="M162.184 237.212l.828 3.343.998-.235.185-3.609z"/><path fill="#1a7155" d="M158.21 240.064l-1.962 1.322.15.617 4.426-.716 3.371-4.576-.004-1.063z"/><path fill="#308b69" d="M160.733 233.501l-2.27 3.435-2.215 4.45 4.055-.678 3.888-5.06-1.905-2.508z"/><path d="M157.196 228.346l2.453 5.645-1.186 2.941 3.823-3.796-.116-6.761s-4.773-2.617-4.975-2.249c-.201.371.003 4.215.003 4.215l-.002.005z" fill="#c6a49f"/><path d="M157.196 228.346l.63 1.448 4.406.136-.062-3.551s-1.165-.637-2.368-1.24c-.903.443-1.864.917-2.682 1.332.028.972.076 1.875.076 1.875z" fill="#9c7e77"/><path fill="#607941" d="M168.345 226.898l7.091.95-5.66 7.81z"/><path fill="#6a9948" d="M168.519 234.261l1.148-2.153 5.769-4.26.15 7.974z"/><path fill="#98c166" d="M162.538 224.992l-2.739 1.193 8.461 13.027.555.852 6.771-4.242-5.919-3.714z"/><path fill="#3a592a" d="M158.347 221.871l-3.626-2.474-.875 3.217 2.075 10.663 6.025-11.017z"/><path fill="#45632e" d="M169.752 213.635l1.885 2.565-1.97 15.908-15.821-9.494 11.013-10.315z"/><path fill="#374f25" d="M171.306 213.88l.606.096-.275 2.224-1.667-1.093z"/><path fill="#c6a49f" d="M169.684 210.462l-1.414-.687-1.911 2.275.524.9 3.087 2.157 1.942-1.131z"/><path fill="#e2c6c2" d="M171.118 208.892l-1.311.568-1.52.277 3.625 4.239.485-2.382z"/><path fill="#45632e" d="M170.242 202.513l-.268 2.545-.045 1.183 1.701 2.569 2.33-1.769 1.489-4.331z"/><path d="M169.929 206.241l-.04 1.091 1.744 1.479 1.983-.767.344-1.002c-1.424-.287-3.117-.625-4.031-.801z" fill="#9cce7a"/><path fill="#c6a49f" d="M169.889 207.331l-.082 2.129 2.59 2.134 1.219-3.551z"/><path fill="#507033" d="M166.338 203.419l1.861 1.25 1.775.389 5.475-2.348-7.881-6.614-3.343 4.505zM151.471 205.995l-1.142 2.27 1.721 4.412-.266 4.28.415 2.846 1.647 2.811 13.037-9.664 1.404-3.213-.088-5.068z"/><path fill="#308b69" d="M153.945 213.679l.088 1.548 12.85-2.277 1.404-3.213z"/><path fill="#48ac86" d="M150.449 214.647l1.601-1.97 16.22-2.902-14.21 5.393z"/><path fill="#45632e" d="M151.321 216.882l-.188 1.08 1.066 1.841.393-1.874z"/><path fill="#c6a49f" d="M150.762 213.679l1.288-1.002 2.01 2.491-1.182 2.702-1.745.092z"/><path fill="#e2c6c2" d="M149.109 213.171l1.223.011 1.718-.505-.917 5.285-2.572-1.614z"/><path fill="#45632e" d="M146.526 207.249l-2.998 1.82 2.112 3.134 2.434 1.183 1.096-2.304-.395-.97z"/><path fill="#9cce7a" d="M145.64 212.203l.668 1.013 1.766.17 1.478-1.366-.382-.938z"/><path fill="#c6a49f" d="M148.561 216.348l1.488-3.108-.497-1.22-3.244 1.196z"/><path fill="#507033" d="M151.471 205.995l-.283-6.491-2.096.399-5.564 9.166 5.247 1.043 1.554-1.847z"/><path fill="#6c884c" d="M149.092 199.903l1.237 8.362 17.87-3.596-.631-8.573z"/><path fill="#bedb8b" d="M151.927 197.176l-2.835 2.727 4.274 4.981 2.061-1.629-1.173-3.046z"/><path fill="#9cce7a" d="M159.23 200.966l-2.212-.228-2.764-.529-.341 1.782-.547 2.893 6.466.446z"/><path fill="#98c166" d="M161.366 197.354l-1.07.909-3.278 2.475 2.814 4.592 5.749-4.344z"/><path fill="#89ae5c" d="M165.581 200.986l2.222-5.469-5.029-1.725-2.478 4.471z"/><path fill="#c6a49f" d="M160.61 177.95l3.059 1.874.794 17.88-2.865-2.514-5.551.903z"/><path fill="#372614" d="M155.958 199.272l-4.198.31-2.839-2.004 1.068-1.86 4.088-.644 1.364 1.411z"/><path fill="#e2c6c2" d="M144.734 178.748l.555 10.23.74 3.5 4.882 3.997 5.136-.382 5.398-6.049-.835-12.094-8.973-3.986z"/><path fill="#c6a49f" d="M146.202 184.507l2.382 1.09 2.887 1.81 2.429.416 2.328-2.607 2.211-1.766-2.644-.793-2.011 1.162-.658.531-.79.559-1.043-.413-1.189-.527-1.949-.733z"/><path fill="#372614" d="M152.046 176.809l-3.956.45-2.375-.971 1.414-2.628 3.766.311z"/><path fill="#3e3229" d="M146.161 179.195l2.481-3.156-1.966-.464-3.139.744-1.901 2.164 2.068 1.478z"/><path fill="#554537" d="M141.636 178.483l1.919-.021 3.117-2.866.576-1.897-.643-.867-3.262 1.142z"/><path fill="#372614" d="M144.196 183.576l-3.009-.691.981-2.242-.532-2.16 1.919-.021 2.606.733-1.345 1.059z"/><path fill="#554537" d="M142.379 184.919l.317-2.119 2.12-2.546.293 5.395-.399 1.08z"/><path fill="#3e3229" d="M141.254 189.601l1.04-2.657 1.989-1.213.826-.082.18 3.329.74 3.5-2.501.051z"/><path fill="#2d1f10" d="M140.682 186.367l.29 2.542 1.69.352.794-1.729.827-1.801-1.689-.686z"/><path fill="#372614" d="M142.696 182.8l-1.864.405-.15 3.162 1.626-.286 1.975-.35z"/><path fill="#554537" d="M139.251 182.807l1.431 3.56 2.014-3.567-.259-1.057-.269-1.1z"/><path fill="#372614" d="M142.158 192.767l1.713-.552-1.209-2.954-1.98-2.894-1.469 3.5z"/><path fill="#2d1f10" d="M142.393 195.366l-.235-2.599.504-3.506 3.367 3.217-.89 2.681z"/><path fill="#372614" d="M146.1 197.473l-3.707-2.107 3.636-2.888 2.072 3.574z"/><path fill="#2d1f10" d="M151.76 199.582l-3.581-.487-2.079-1.622-.071-4.995 4.882 3.997z"/><path fill="#372614" d="M150.993 200.107l-5.241-.559.348-2.075 5.66 2.109z"/><path fill="#e2c6c2" d="M167.568 196.096l-10.083 5.404-8.393-1.597 4.794-3.65 7.712-1.063 3.974-1.309z"/><path fill="#9c7e77" d="M157.485 201.5l-3.053-4.457-.546-.79 7.712-1.063z"/><path fill="#554537" d="M158.521 179.327l2.259.218 2.429 1.953 2.253-1.741-2.569-2.624-4.608-3.295-3.615.644-.105 1.537 1.837.643z"/><path fill="#3e3229" d="M152.046 176.809l2.771-.868-.147-1.459 8.223 2.651-1.684-5.336-1.693-.287-.988-2.303-2.556 1.632-4.757 1.118.348 2.412z"/><path fill="#554537" d="M148.019 171.981l3.056-.45 1.291 1.346-.091 1.101-.229 2.831-1.465-2.112-3.333-.998-.643-.867z"/><path fill="#3e3229" d="M146.158 172.111l1.861-.13-.426.947-.345.771-3.905.275z"/><path fill="#6f6054" d="M151.787 169.786l-3.768 2.195 4.347.896 2.24-1.349-.542-.791z"/><path fill="#554537" d="M158.528 169.207l-4.464 1.53-1.698 2.14 3.371-.74 2.504-.548z"/><path fill="#372614" d="M161.209 171.797l-2.681-2.59-.287 2.382 1.312 1.564z"/><path fill="#6f6054" d="M163.915 171.698l-2.706.099-1.656 1.356.198.235 1.833 2.187 2.764.631-.011-1.383z"/><path fill="#554537" d="M168.253 176.568l-3.916-1.745-2.753.752 1.309 1.558 3.319 3.391 2.201-.972z"/><path fill="#6f6054" d="M169.496 184.054l-3.151-2.116.092-3.207 1.816-2.163 1.564 5.339z"/><path fill="#372614" d="M165.922 184.285l1.37 2.87 2.204-3.101-3.059-5.323-3.755-1.847.987 2.94-1.011 2.956z"/><path fill="#3e3229" d="M161.029 183.995l3.639 1.48 1.254-1.19-2.253-4.461-2.889-.279z"/><path fill="#2d1f10" d="M165.496 187.577l-1.427 1.186-.941-2.613-2.099-2.155 4.893.29 1.268 2.311z"/><path fill="#372614" d="M162.781 188.841l.347-2.691 2.368 1.427 1.714 3.387-1.833 1.871-1.227-2.208z"/><path fill="#3e3229" d="M167.428 191.483l2.201-3.681-.133-3.748-3.574.231-.831 6.301z"/><path fill="#372614" d="M171.136 188.941l-2.038 3.025-1.888-1.002 2.286-6.91 2.028 2.402z"/><path fill="#2d1f10" d="M167.568 196.096l-.501-1.37.143-3.762 3.926-2.023-.267 3.581z"/><path fill="#372614" d="M169.221 197.48l-1.653-1.384 3.568-7.155 2.003 3.008z"/><path fill="#2d1f10" d="M161.598 195.19l5.97.906-.358-5.132-2.119-.378-.941.041z"/><path fill="#372614" d="M167.568 196.096l-.358-5.132-2.627 4.679z"/><path fill="#c6a49f" d="M157.567 188.637l2.763-1.032-.882 2.221zM154.892 188.487l1.673.347.432 1.96-.347.671-.28-.988zM150.121 188.879l-1.383 2.317.102.702-.586-1.124.616-1.728zM145.725 188.95l2.028.518-.855 1.333z"/><path fill="#f0ddda" d="M151.293 184.496l.549 1.654-1.258 1.935 3.316-.262-1.257-1.673.483-1.8z"/><path fill="#9c7e77" d="M152.366 189.291l-1.782-1.206 3.316-.262z"/><path fill="#554537" d="M153.784 183.819l2.332-.767 2.323.398-2.283-1.308-2.545.709zM150.104 183.969l-1.863-.208-2.039.746 1.872-1.677 2.18.27z"/><path d="M148.432 184.825c.426-.085.839.191.924.617.085.425-.191.839-.617.924-.426.085-.839-.191-.924-.617-.085-.425.191-.84.617-.924zM155.737 184.272c.426-.085.84.191.925.617.085.426-.191.839-.617.924-.426.085-.84-.191-.925-.617-.085-.426.191-.839.617-.924z" fill="#2b2b2b"/><path fill="#3a592a" d="M149.232 190.859l1.993-.256 1.196-.341 1.272.45 2.252-.068-2.174 2.876-2.648-.014z"/><path fill="#fff" d="M150.51 191.325l.63 1.258 2.583-.013.89-1.361-2.475.253z"/><path fill="#372614" d="M156.402 176.662l-4.356.147 2.624-2.327z"/><path fill="#9c7e77" d="M144.816 180.254l7.23-3.445-3.404-.77z"/><path d="M128.988 178.492l-5.143-6.109-8.049 2.906-1.417 6.26h.003l2.235 12.595 4.621 2.385 6.185-1.714 2.757-3.503-1.192-12.82zm-6.71 14.312l-4.992-14.233v-.003l6.185-1.939 2.311 14.759-3.504 1.416z" fill="#e8f078"/><path d="M125.866 223.551l17.277-5.033.596 2.981-17.259 5.15-.614-3.098zm2.416 12.223l8.748-2.351.3 3.277-8.396 2.362-.652-3.288zm-1.168-5.906l14.387-3.898.596 2.683-14.424 4.044-.559-2.829z" fill="#3f8f6f"/><path fill="#ccc" d="M127.58 254.758l-3.06-3.742 72.166-11.313-.43 7.538z"/><path fill="#67b595" d="M120.666 232.598l-2.262-10.805 8.536-3.912z"/><path fill="#c6a49f" d="M108.031 201.113l4.46-7.573 15 8.465-.551 15.879-8.536 3.909z"/><path fill="#e2c6c2" d="M99.201 203.941l13.29-10.401 5.913 28.253-16.084-2.958z"/></svg>